<svg xmlns="http://www.w3.org/2000/svg" width="32" height="32" fill="none"><mask id="a" fill="#fff"><path fill-rule="evenodd" d="M17.6 22.4c0 .9-.7 1.6-1.6 1.6-1 0-1.6-.7-1.6-1.6h3.2zM16 11.5l-.8.2a3.2 3.2 0 00-2.6 3.1V19.6H21l.4-.4.4.4 1.2 1.2v.8H9v-.8l1.2-1.2.4-.4v-4.4c0-2.5 1.8-4.5 4.2-5v-.6c0-.7.5-1.2 1.2-1.2s1.2.5 1.2 1.2v.5c2.4.6 4.2 2.6 4.2 5.1v4.4h-2v-4.4c0-1.5-1.1-2.8-2.6-3.1l-.8-.2z" clip-rule="evenodd"/></mask><path fill="#3E4056" d="M17.6 22.4h2v-2h-2v2zm-3.2 0v-2h-2v2h2zm.8-10.7l.5 2-.5-2zm.8-.2l.4-2h-.8l.4 2zm-3.4 8.1h-2v2h2v-2zm8.4 0v2h.8l.6-.6-1.4-1.4zm.8 0L20.4 21l1.4-1.4zm1.2 1.2h2V20l-.6-.6-1.4 1.4zm0 .8v2h2v-2h-2zm-14 0H7v2h2v-2zm0-.8l-1.4-1.4-.6.6v.8h2zm1.2-1.2l-1.4-1.4 1.4 1.4zm.4-.4l1.4 1.4.6-.6v-.8h-2zm4.2-9.5l.4 2 1.6-.4V9.7h-2zm2.4 0h-2v1.6l1.6.4.4-2zm2.2 9.5h-2v2h2v-2zm-2.6-7.5l-.5 2 .5-2zM16 26c2 0 3.6-1.6 3.6-3.6h-4c0-.3.3-.4.4-.4v4zm-3.6-3.6c0 2 1.6 3.6 3.6 3.6v-4c.1 0 .4.1.4.4h-4zm3.2-2h-1.2v4h1.2v-4zm.4 0h-.4v4h.4v-4zm.4 0H16v4h.4v-4zm1.2 0h-1.2v4h1.2v-4zm-2-6.8l.8-.1-.8-4-.8.2.9 4zm-1 1.2c0-.5.4-1 1-1.2l-.8-3.9a5.2 5.2 0 00-4.2 5.1h4zm0 4.4v-4.4h-4v4.4h4zm0 .4v-.4h-4v.4h4zm6.4-2h-8.4v4H21v-4zm-1 .2l-.5.4 2.9 2.8.4-.4-2.9-2.8zm3.2.4l-.5-.4-2.7 2.8.4.4 2.8-2.8zm1.2 1.2l-1.2-1.2-2.8 2.8 1.2 1.2 2.8-2.8zm.6 2.2v-.8h-4v.8h4zm-2.8 2h.8v-4h-.8v4zm-1.2 0h1.2v-4H21v4zm0 0v-4 4zm-10 0h10v-4H11v4zm0 0v-4 4zm-1.2 0H11v-4H9.8v4zm-.8 0h.8v-4H9v4zm-2-2.8v.8h4v-.8H7zm1.8-2.6l-1.2 1.2 2.8 2.8 1.2-1.2-2.8-2.8zm.5-.4l-.5.4 2.8 2.8.4-.4-2.7-2.8zm-.7-3v4.4h4v-4.4h-4zm5.7-7a7.2 7.2 0 00-5.7 7h4c0-1.5 1.1-2.8 2.6-3.1l-.9-4zm-1.5 1.4v.5h4v-.5h-4zM16 6a3.2 3.2 0 00-3.2 3.2h4c0 .5-.4.8-.8.8V6zm3.2 3.2C19.2 7.4 17.7 6 16 6v4a.8.8 0 01-.8-.8h4zm0 .5v-.5h-4v.5h4zm4.2 5.1c0-3.4-2.5-6.3-5.7-7l-1 3.9c1.6.3 2.7 1.6 2.7 3.1h4zm0 4.4v-4.4h-4v4.4h4zm-4 2h2v-4h-2v4zm-2-6.4v4.4h4v-4.4h-4zm-1-1.2c.6.2 1 .7 1 1.2h4c0-2.4-1.8-4.5-4.2-5l-.9 3.8zm-.8-.1l.7.1 1-3.9-.9-.1-.8 3.9z" mask="url(#a)"/></svg>