<svg xmlns="http://www.w3.org/2000/svg" width="16" height="16" fill="none"><path fill="#FB5F8A" fill-rule="evenodd" d="M8 9c-.8 1.3-2 2-3.5 2C2 11 0 8.8 0 6s2-5 4.5-5c1.4 0 2.7.7 3.5 2 .8-1.3 2-2 3.5-2C14 1 16 3.2 16 6s-2 5-4.5 5c-1.4 0-2.7-.7-3.5-2z" clip-rule="evenodd"/><mask id="a" width="16" height="10" x="0" y="1" maskUnits="userSpaceOnUse"><path fill="#fff" fill-rule="evenodd" d="M8 9c-.8 1.3-2 2-3.5 2C2 11 0 8.8 0 6s2-5 4.5-5c1.4 0 2.7.7 3.5 2 .8-1.3 2-2 3.5-2C14 1 16 3.2 16 6s-2 5-4.5 5c-1.4 0-2.7-.7-3.5-2z" clip-rule="evenodd"/></mask><g mask="url(#a)"><path fill="#FC719F" d="M0 1h16v16H0z"/><path fill="#ED5267" d="M0 1h16v16H0z"/></g><path fill="#FB5F8A" fill-rule="evenodd" d="M8 15c2.8 0 8-5 8-9H0c0 4 5.2 9 8 9z" clip-rule="evenodd"/><mask id="b" width="16" height="9" x="0" y="6" maskUnits="userSpaceOnUse"><path fill="#fff" fill-rule="evenodd" d="M8 15c2.8 0 8-5 8-9H0c0 4 5.2 9 8 9z" clip-rule="evenodd"/></mask><g mask="url(#b)"><path fill="#FC719F" d="M0 1h16v16H0z"/><path fill="#ED5267" d="M0 1h16v16H0z"/></g></svg>