<svg xmlns="http://www.w3.org/2000/svg" width="16" height="16" color="#3E4056">
  <path fill="currentColor" fill-rule="evenodd"
        d="M6.588 2.34a5.001 5.001 0 017.071 7.071L9.412 13.66a5.002 5.002 0 01-7.069-.002 5.001 5.001 0 01-.002-7.069l4.247-4.247zm1.414 1.415L3.755 8.002a3 3 0 004.243 4.243l4.247-4.247a3 3 0 00-4.243-4.243zM5.879 3.05L3.05 5.88l1.414 1.414 2.829-2.829L5.879 3.05zm5.657 5.657l-2.829 2.829 1.414 1.414 2.829-2.829-1.414-1.414zM8.714 5.872a.993.993 0 011.407.007 1 1 0 01.007 1.407l-2.842 2.842a.993.993 0 01-1.407-.007 1 1 0 01-.007-1.407l2.842-2.842z"
        clip-rule="evenodd"/>
  <mask id="a" width="16" height="16" x="0" y="0" maskUnits="userSpaceOnUse">
    <path fill="none" fill-rule="evenodd"
          d="M6.588 2.34a5.001 5.001 0 017.071 7.071L9.412 13.66a5.002 5.002 0 01-7.069-.002 5.001 5.001 0 01-.002-7.069l4.247-4.247zm1.414 1.415L3.755 8.002a3 3 0 004.243 4.243l4.247-4.247a3 3 0 00-4.243-4.243zM5.879 3.05L3.05 5.88l1.414 1.414 2.829-2.829L5.879 3.05zm5.657 5.657l-2.829 2.829 1.414 1.414 2.829-2.829-1.414-1.414zM8.714 5.872a.993.993 0 011.407.007 1 1 0 01.007 1.407l-2.842 2.842a.993.993 0 01-1.407-.007 1 1 0 01-.007-1.407l2.842-2.842z"
          clip-rule="evenodd"/>
  </mask>
  <mask id="b" width="12" height="12" x="2" y="2" maskUnits="userSpaceOnUse">
    <path fill="#fff" fill-rule="evenodd"
          d="M3.05 5.879a.998.998 0 011.415 0 .998.998 0 010 1.414.998.998 0 01-1.415 0 .998.998 0 010-1.414zm5.657 5.657a.998.998 0 011.414 0 .997.997 0 010 1.414.997.997 0 01-1.414 0 .998.998 0 010-1.414zm2.829-2.829a.998.998 0 011.414 0 .998.998 0 010 1.414.998.998 0 01-1.414 0 .997.997 0 010-1.414zM5.879 3.05a.998.998 0 011.414 0 .998.998 0 010 1.414.998.998 0 01-1.414 0 .998.998 0 010-1.414z"
          clip-rule="evenodd"/>
  </mask>
  <g mask="url(#b)">
    <path fill="currentColor" d="M0 0h16v16H0z"/>
  </g>
</svg>
