<svg xmlns="http://www.w3.org/2000/svg" width="24" height="24" fill="none"><mask id="a" fill="#fff"><path fill-rule="evenodd" d="M14 6a2 2 0 11-4 0 2 2 0 014 0zm0 6a2 2 0 11-4 0 2 2 0 014 0zm-2 8a2 2 0 100-4 2 2 0 000 4z" clip-rule="evenodd"/></mask><path fill="#3E4056" d="M12 10a4 4 0 004-4h-4v4zM8 6a4 4 0 004 4V6H8zm4-4a4 4 0 00-4 4h4V2zm4 4a4 4 0 00-4-4v4h4zm-4 10a4 4 0 004-4h-4v4zm-4-4a4 4 0 004 4v-4H8zm4-4a4 4 0 00-4 4h4V8zm4 4a4 4 0 00-4-4v4h4zm-4 6v4a4 4 0 004-4h-4zm0 0h4a4 4 0 00-4-4v4zm0 0v-4a4 4 0 00-4 4h4zm0 0H8a4 4 0 004 4v-4z" mask="url(#a)"/><mask id="c" width="4" height="16" x="10" y="4" maskUnits="userSpaceOnUse"><g fill="#fff"><mask id="b"><path fill-rule="evenodd" d="M14 6a2 2 0 11-4 0 2 2 0 014 0zm0 6a2 2 0 11-4 0 2 2 0 014 0zm-2 8a2 2 0 100-4 2 2 0 000 4z" clip-rule="evenodd"/></mask><path fill-rule="evenodd" d="M14 6a2 2 0 11-4 0 2 2 0 014 0zm0 6a2 2 0 11-4 0 2 2 0 014 0zm-2 8a2 2 0 100-4 2 2 0 000 4z" clip-rule="evenodd"/><path d="M12 10a4 4 0 004-4h-4v4zM8 6a4 4 0 004 4V6H8zm4-4a4 4 0 00-4 4h4V2zm4 4a4 4 0 00-4-4v4h4zm-4 10a4 4 0 004-4h-4v4zm-4-4a4 4 0 004 4v-4H8zm4-4a4 4 0 00-4 4h4V8zm4 4a4 4 0 00-4-4v4h4zm-4 6v4a4 4 0 004-4h-4zm0 0h4a4 4 0 00-4-4v4zm0 0v-4a4 4 0 00-4 4h4zm0 0H8a4 4 0 004 4v-4z" mask="url(#b)"/></g></mask><g mask="url(#c)"><path fill="#3E4056" d="M0 0h24v24H0z"/></g></svg>