<svg xmlns="http://www.w3.org/2000/svg" width="20" height="20" fill="none"><path fill="#C3CADF" d="M0 0h20v20H0z" opacity=".01"/><path stroke="#3E4056" stroke-width="2" d="M4 17a2 2 0 01-2-2V3c0-1.1.9-2 2-2h10a2 2 0 012 2v1"/><rect width="8" height="2" x="5" y="4" fill="#3E4056" rx="1"/><path fill="#3E4056" fill-rule="evenodd" d="M5 9a1 1 0 011-1h4l-2 2H6a1 1 0 01-1-1zM13.9 6.93a2 2 0 012.82 0l2.83 2.83a2 2 0 010 2.82l-6.94 6.95a.5.5 0 01-.31.14l-3.72.35a2 2 0 01-2.17-2.2l.4-3.65a.5.5 0 01.14-.3l6.94-6.94zm.7 2.12a1 1 0 011.41 0l1.42 1.41a1 1 0 010 1.42l-.7.7-2.84-2.82.71-.71zm-2.12 2.12l-3.54 3.54-.4 2.06a1 1 0 001.17 1.18l2.06-.42L15.31 14l-2.83-2.83z" clip-rule="evenodd"/></svg>