<svg xmlns="http://www.w3.org/2000/svg" width="32" height="32" fill="none"><rect width="12" height="10" x="10" y="12" stroke="#3E4056" stroke-width="2" rx="2"/><path stroke="#3E4056" stroke-width="2" d="M12.4 12.5c1.1.4 3 .1 3.4-1 .4-1-1-2.4-2-2.8a2 2 0 00-2.6 1.2 2 2 0 001.2 2.6zM19.6 12.5c-1.1.4-3 .1-3.4-1-.4-1 1-2.4 2-2.8a2 2 0 012.6 1.2 2 2 0 01-1.2 2.6z" clip-rule="evenodd"/><path fill="#3E4056" d="M15 12h2v10h-2z"/><g fill="#fff"><mask id="a"><path d="M8 13c0-1.1.9-2 2-2h12a2 2 0 012 2v3c0 .6-.4 1-1 1H9a1 1 0 01-1-1v-3z"/></mask><path stroke="#3E4056" stroke-width="4" d="M8 13c0-1.1.9-2 2-2h12a2 2 0 012 2v3c0 .6-.4 1-1 1H9a1 1 0 01-1-1v-3z" mask="url(#a)"/></g></svg>